<?xml version="1.0" encoding="UTF-8"?>
<svg id="Layer_1" data-name="Layer 1" xmlns="http://www.w3.org/2000/svg" viewBox="0 0 500 500">
  <defs>
    <style>
      .cls-1 {
        fill: #fff;
      }

      .cls-2 {
        fill: #596eee;
      }
    </style>
  </defs>
  <g>
    <circle class="cls-2" cx="256" cy="252" r="179.5"/>
    <path class="cls-2" d="m256,73c24.17,0,47.61,4.73,69.67,14.07,21.32,9.02,40.46,21.92,56.9,38.36,16.44,16.44,29.35,35.58,38.36,56.9,9.33,22.07,14.07,45.51,14.07,69.67s-4.73,47.61-14.07,69.67c-9.02,21.32-21.92,40.46-38.36,56.9-16.44,16.44-35.58,29.35-56.9,38.36-22.07,9.33-45.51,14.07-69.67,14.07s-47.61-4.73-69.67-14.07c-21.32-9.02-40.46-21.92-56.9-38.36-16.44-16.44-29.35-35.58-38.36-56.9-9.33-22.07-14.07-45.51-14.07-69.67s4.73-47.61,14.07-69.67c9.02-21.32,21.92-40.46,38.36-56.9,16.44-16.44,35.58-29.35,56.9-38.36,22.07-9.33,45.51-14.07,69.67-14.07m0-1c-99.41,0-180,80.59-180,180s80.59,180,180,180,180-80.59,180-180-80.59-180-180-180h0Z"/>
  </g>
  <path class="cls-1" d="m163.61,167c-11.72,0-21.23,9.51-21.23,21.23,0,6.68,3.14,12.96,8.49,16.99l96.25,72.19c5.04,3.76,11.94,3.76,16.99,0l96.25-72.19c5.35-4.03,8.49-10.31,8.49-16.99,0-11.72-9.51-21.23-21.23-21.23,0,0-184.01,0-184.01,0Zm-21.23,49.54v92c0,15.61,12.69,28.31,28.31,28.31h169.85c15.61,0,28.31-12.69,28.31-28.31v-92l-96.25,72.19c-10.08,7.56-23.89,7.56-33.97,0l-96.25-72.19Z"/>
</svg>